<svg width="205" height="75" viewBox="0 0 205 75" fill="none" xmlns="http://www.w3.org/2000/svg">
<g clip-path="url(#clip0_2321_289)">
<path d="M16.518 0C7.39582 0 0 7.33442 0 16.3809C0 25.4273 7.39582 32.7618 16.518 32.7618C25.6402 32.7618 33.036 25.4273 33.036 16.3809C33.036 7.33442 25.6422 0 16.518 0ZM16.518 24.3041C12.1069 24.3041 8.5285 20.7574 8.5285 16.3809C8.5285 12.0043 12.1048 8.4577 16.518 8.4577C20.9312 8.4577 24.5075 12.0043 24.5075 16.3809C24.5075 20.7574 20.9312 24.3041 16.518 24.3041Z" fill="white"/>
<path d="M69.8286 13.6639V62.6197H60.1451V16.3084C60.1451 15.0786 59.8473 13.9714 59.2495 12.9848C58.6538 12.0001 57.8575 11.2165 56.8646 10.6357C55.8697 10.057 54.7654 9.76565 53.5497 9.76565C52.3339 9.76565 51.2215 10.055 50.2165 10.6357C49.2115 11.2165 48.4152 11.9981 47.8316 12.9848C47.246 13.9714 46.9542 15.0786 46.9542 16.3084L47.0029 28.2966C44.5025 26.7996 41.3557 25.9295 37.2708 25.9637L37.2363 1.00051H46.9198L46.9542 3.57459C48.1234 2.46137 49.4972 1.59128 51.0756 0.96434C52.6541 0.337397 54.3217 0.0239258 56.0764 0.0239258C58.6254 0.0239258 60.9354 0.638812 63.0062 1.86858C65.075 3.09836 66.7305 4.73805 67.9705 6.79169C69.2106 8.84533 69.8306 11.1361 69.8306 13.6639H69.8286Z" fill="white"/>
<path d="M36.1403 74.9995C33.2144 74.9995 30.3269 74.459 27.4801 73.382C24.6332 72.3049 22.1024 70.7456 19.8877 68.706L25.4032 62.0588C26.9451 63.4714 28.6958 64.5987 30.6532 65.4407C32.6105 66.2846 34.499 66.7046 36.3186 66.7046C38.4542 66.7046 40.0449 66.3027 41.0924 65.499C42.14 64.6952 42.6648 63.6262 42.6648 62.2939C42.6648 61.3133 42.3973 60.5296 41.8644 59.9409C41.3315 59.3521 40.5899 58.8236 39.6396 58.3534C38.6913 57.8832 37.5627 57.3929 36.2598 56.8825L30.5073 54.4712C29.0038 53.8443 27.5712 53.0103 26.2076 51.9715C24.8439 50.9326 23.7355 49.6385 22.8865 48.0893C22.0355 46.54 21.612 44.7275 21.612 42.6477C21.612 40.2163 22.2746 38.022 23.5998 36.0608C24.925 34.0996 26.7628 32.5523 29.1152 31.415C31.4677 30.2777 34.1667 29.709 37.2122 29.709C39.7814 29.709 42.3021 30.1892 44.7741 31.1497C47.2441 32.1103 49.4102 33.5309 51.2683 35.4138L46.4053 41.4139C44.9808 40.3168 43.5381 39.4628 42.0752 38.8559C40.6122 38.2491 38.9912 37.9436 37.2122 37.9436C35.4331 37.9436 34.0289 38.3073 33.0016 39.0327C31.9723 39.7581 31.4596 40.7488 31.4596 42.0027C31.4596 42.9431 31.7555 43.7187 32.3491 44.3256C32.9428 44.9344 33.7432 45.4629 34.7523 45.913C35.7614 46.3652 36.9163 46.8454 38.2212 47.3538L43.8562 49.6486C45.6353 50.3539 47.1773 51.2461 48.4822 52.3251C49.7871 53.4042 50.7961 54.6882 51.5074 56.1772C52.2186 57.6682 52.5752 59.4526 52.5752 61.5303C52.5752 63.9617 51.9329 66.1982 50.6482 68.2358C49.3636 70.2754 47.4853 71.9131 45.0132 73.1469C42.5412 74.3827 39.5869 74.9995 36.1463 74.9995H36.1403Z" fill="white"/>
<path d="M69.8284 55.7654V74.1758H60.1611V30.4727H69.8284V55.7654Z" fill="white"/>
<path d="M100.526 55.7654V74.1758H90.8589V30.4727H100.526V55.7654Z" fill="white"/>
<path d="M89.4611 55.7654V74.1758H85.6558V30.4727H89.4611V55.7654Z" fill="white"/>
<path d="M105.594 74.1758V30.4727H133.056V38.4722H115.261V47.589H130.326V55.6468H115.261V66.116H133.708V74.1738H105.594V74.1758Z" fill="white"/>
<path d="M142.545 74.1758V30.4727H152.212V66.118H169.77V74.1758H142.545Z" fill="white"/>
<path d="M177.421 74.1758V30.4727H205V38.4722H187.088V49.0016H202.449V57.0012H187.088V74.1758H177.421Z" fill="white"/>
<path d="M75.5162 55.7654V74.1758H71.7109V30.4727H75.5162V55.7654Z" fill="white"/>
</g>
<defs>
<clipPath id="clip0_2321_289">
<rect width="205" height="75" fill="white"/>
</clipPath>
</defs>
</svg>
